dataset
version=1
nRows=28
nColumns=39
inDegrees=no
endheader
time	sternoclavicular_r2	sternoclavicular_r3	unrotscap_r3	unrotscap_r2	acromioclavicular_r2	acromioclavicular_r3	acromioclavicular_r1	unrothum_r1	unrothum_r3	unrothum_r2	elv_angle	shoulder_elv	shoulder1_r2	shoulder_rot	elbow_flexion	pro_sup	deviation	flexion	cmc_abduction	cmc_flexion	mp_flexion	ip_flexion	mcp2_flexion	mcp2_abduction	pm2_flexion	md2_flexion	mcp3_flexion	mcp3_abduction	pm3_flexion	md3_flexion	mcp4_flexion	mcp4_abduction	pm4_flexion	md4_flexion	mcp5_flexion	mcp5_abduction	pm5_flexion	md5_flexion
5.625000	-0.012810	-0.280537	0.131007	0.034365	0.013915	0.097689	-0.091672	-0.078042	0.005148	0.062394	0.032135	0.027437	0.146525	0.146525	1.489866	1.286074	0.000000	0.000000	0.000000	0.000000	0.000000	0.000000	0.000000	0.000000	0.000000	0.000000	0.000000	0.000000	0.000000	0.000000	0.000000	0.000000	0.000000	0.000000	0.000000	0.000000	0.000000	0.000000
5.630000	-0.012696	-0.280562	0.131379	0.033620	0.013153	0.097723	-0.092090	-0.079100	0.005372	0.061733	0.031401	0.027437	0.146525	0.146525	1.488403	1.286180	0.000000	0.000000	0.000000	0.000000	0.000000	0.000000	0.000000	0.000000	0.000000	0.000000	0.000000	0.000000	0.000000	0.000000	0.000000	0.000000	0.000000	0.000000	0.000000	0.000000	0.000000	0.000000
5.635000	-0.012584	-0.280585	0.131744	0.032890	0.012406	0.097754	-0.092501	-0.080144	0.005597	0.061086	0.030684	0.027437	0.146525	0.146525	1.486885	1.286287	0.000000	0.000000	0.000000	0.000000	0.000000	0.000000	0.000000	0.000000	0.000000	0.000000	0.000000	0.000000	0.000000	0.000000	0.000000	0.000000	0.000000	0.000000	0.000000	0.000000	0.000000	0.000000
5.640000	-0.012474	-0.280605	0.132101	0.032174	0.011675	0.097783	-0.092905	-0.081176	0.005825	0.060454	0.029984	0.027437	0.146525	0.146525	1.485315	1.286397	0.000000	0.000000	0.000000	0.000000	0.000000	0.000000	0.000000	0.000000	0.000000	0.000000	0.000000	0.000000	0.000000	0.000000	0.000000	0.000000	0.000000	0.000000	0.000000	0.000000	0.000000	0.000000
5.645000	-0.012366	-0.280623	0.132451	0.031474	0.010960	0.097811	-0.093302	-0.082193	0.006055	0.059837	0.029302	0.027437	0.146525	0.146525	1.483694	1.286508	0.000000	0.000000	0.000000	0.000000	0.000000	0.000000	0.000000	0.000000	0.000000	0.000000	0.000000	0.000000	0.000000	0.000000	0.000000	0.000000	0.000000	0.000000	0.000000	0.000000	0.000000	0.000000
5.650000	-0.012260	-0.280640	0.132793	0.030791	0.010262	0.097836	-0.093692	-0.083197	0.006286	0.059235	0.028637	0.027437	0.146525	0.146525	1.482026	1.286620	0.000000	0.000000	0.000000	0.000000	0.000000	0.000000	0.000000	0.000000	0.000000	0.000000	0.000000	0.000000	0.000000	0.000000	0.000000	0.000000	0.000000	0.000000	0.000000	0.000000	0.000000	0.000000
5.655000	-0.012156	-0.280655	0.133127	0.030123	0.009581	0.097859	-0.094075	-0.084186	0.006518	0.058649	0.027989	0.027437	0.146525	0.146525	1.480314	1.286734	0.000000	0.000000	0.000000	0.000000	0.000000	0.000000	0.000000	0.000000	0.000000	0.000000	0.000000	0.000000	0.000000	0.000000	0.000000	0.000000	0.000000	0.000000	0.000000	0.000000	0.000000	0.000000
5.660000	-0.012054	-0.280669	0.133454	0.029472	0.008917	0.097880	-0.094451	-0.085160	0.006752	0.058079	0.027360	0.027437	0.146525	0.146525	1.478561	1.286848	0.000000	0.000000	0.000000	0.000000	0.000000	0.000000	0.000000	0.000000	0.000000	0.000000	0.000000	0.000000	0.000000	0.000000	0.000000	0.000000	0.000000	0.000000	0.000000	0.000000	0.000000	0.000000
5.665000	-0.011955	-0.280682	0.133774	0.028837	0.008270	0.097899	-0.094821	-0.086119	0.006986	0.057525	0.026748	0.027437	0.146525	0.146525	1.476770	1.286964	0.000000	0.000000	0.000000	0.000000	0.000000	0.000000	0.000000	0.000000	0.000000	0.000000	0.000000	0.000000	0.000000	0.000000	0.000000	0.000000	0.000000	0.000000	0.000000	0.000000	0.000000	0.000000
5.670000	-0.011858	-0.280694	0.134086	0.028220	0.007642	0.097916	-0.095183	-0.087062	0.007220	0.056987	0.026155	0.027437	0.146525	0.146525	1.474944	1.287080	0.000000	0.000000	0.000000	0.000000	0.000000	0.000000	0.000000	0.000000	0.000000	0.000000	0.000000	0.000000	0.000000	0.000000	0.000000	0.000000	0.000000	0.000000	0.000000	0.000000	0.000000	0.000000
5.675000	-0.011763	-0.280705	0.134391	0.027620	0.007031	0.097931	-0.095540	-0.087988	0.007454	0.056466	0.025580	0.027437	0.146525	0.146525	1.473087	1.287196	0.000000	0.000000	0.000000	0.000000	0.000000	0.000000	0.000000	0.000000	0.000000	0.000000	0.000000	0.000000	0.000000	0.000000	0.000000	0.000000	0.000000	0.000000	0.000000	0.000000	0.000000	0.000000
5.680000	-0.011670	-0.280716	0.134689	0.027037	0.006438	0.097944	-0.095889	-0.088899	0.007688	0.055962	0.025024	0.027437	0.146525	0.146525	1.471200	1.287313	0.000000	0.000000	0.000000	0.000000	0.000000	0.000000	0.000000	0.000000	0.000000	0.000000	0.000000	0.000000	0.000000	0.000000	0.000000	0.000000	0.000000	0.000000	0.000000	0.000000	0.000000	0.000000
5.685000	-0.011580	-0.280727	0.134979	0.026472	0.005864	0.097955	-0.096233	-0.089793	0.007921	0.055474	0.024486	0.027437	0.146525	0.146525	1.469287	1.287430	0.000000	0.000000	0.000000	0.000000	0.000000	0.000000	0.000000	0.000000	0.000000	0.000000	0.000000	0.000000	0.000000	0.000000	0.000000	0.000000	0.000000	0.000000	0.000000	0.000000	0.000000	0.000000
5.690000	-0.011492	-0.280738	0.135262	0.025924	0.005308	0.097964	-0.096569	-0.090670	0.008154	0.055004	0.023967	0.027437	0.146525	0.146525	1.467352	1.287548	0.000000	0.000000	0.000000	0.000000	0.000000	0.000000	0.000000	0.000000	0.000000	0.000000	0.000000	0.000000	0.000000	0.000000	0.000000	0.000000	0.000000	0.000000	0.000000	0.000000	0.000000	0.000000
5.695000	-0.011406	-0.280749	0.135539	0.025395	0.004770	0.097972	-0.096900	-0.091529	0.008385	0.054550	0.023467	0.027437	0.146525	0.146525	1.465397	1.287665	0.000000	0.000000	0.000000	0.000000	0.000000	0.000000	0.000000	0.000000	0.000000	0.000000	0.000000	0.000000	0.000000	0.000000	0.000000	0.000000	0.000000	0.000000	0.000000	0.000000	0.000000	0.000000
5.700000	-0.011323	-0.280760	0.135808	0.024883	0.004251	0.097978	-0.097224	-0.092371	0.008614	0.054113	0.022985	0.027437	0.146525	0.146525	1.463426	1.287781	0.000000	0.000000	0.000000	0.000000	0.000000	0.000000	0.000000	0.000000	0.000000	0.000000	0.000000	0.000000	0.000000	0.000000	0.000000	0.000000	0.000000	0.000000	0.000000	0.000000	0.000000	0.000000
5.705000	-0.011242	-0.280772	0.136071	0.024389	0.003751	0.097982	-0.097541	-0.093195	0.008842	0.053693	0.022521	0.027437	0.146525	0.146525	1.461441	1.287898	0.000000	0.000000	0.000000	0.000000	0.000000	0.000000	0.000000	0.000000	0.000000	0.000000	0.000000	0.000000	0.000000	0.000000	0.000000	0.000000	0.000000	0.000000	0.000000	0.000000	0.000000	0.000000
5.710000	-0.011163	-0.280785	0.136327	0.023913	0.003269	0.097984	-0.097853	-0.094001	0.009067	0.053291	0.022076	0.027437	0.146525	0.146525	1.459446	1.288013	0.000000	0.000000	0.000000	0.000000	0.000000	0.000000	0.000000	0.000000	0.000000	0.000000	0.000000	0.000000	0.000000	0.000000	0.000000	0.000000	0.000000	0.000000	0.000000	0.000000	0.000000	0.000000
5.715000	-0.011087	-0.280798	0.136576	0.023456	0.002806	0.097985	-0.098158	-0.094789	0.009291	0.052905	0.021650	0.027437	0.146525	0.146525	1.457443	1.288128	0.000000	0.000000	0.000000	0.000000	0.000000	0.000000	0.000000	0.000000	0.000000	0.000000	0.000000	0.000000	0.000000	0.000000	0.000000	0.000000	0.000000	0.000000	0.000000	0.000000	0.000000	0.000000
5.720000	-0.011013	-0.280813	0.136818	0.023016	0.002362	0.097984	-0.098457	-0.095558	0.009511	0.052536	0.021242	0.027437	0.146525	0.146525	1.455436	1.288242	0.000000	0.000000	0.000000	0.000000	0.000000	0.000000	0.000000	0.000000	0.000000	0.000000	0.000000	0.000000	0.000000	0.000000	0.000000	0.000000	0.000000	0.000000	0.000000	0.000000	0.000000	0.000000
5.725000	-0.010942	-0.280828	0.137054	0.022594	0.001936	0.097982	-0.098750	-0.096308	0.009729	0.052184	0.020852	0.027437	0.146525	0.146525	1.453427	1.288355	0.000000	0.000000	0.000000	0.000000	0.000000	0.000000	0.000000	0.000000	0.000000	0.000000	0.000000	0.000000	0.000000	0.000000	0.000000	0.000000	0.000000	0.000000	0.000000	0.000000	0.000000	0.000000
5.730000	-0.010873	-0.280845	0.137284	0.022190	0.001529	0.097979	-0.099037	-0.097040	0.009944	0.051849	0.020479	0.027437	0.146525	0.146525	1.451419	1.288467	0.000000	0.000000	0.000000	0.000000	0.000000	0.000000	0.000000	0.000000	0.000000	0.000000	0.000000	0.000000	0.000000	0.000000	0.000000	0.000000	0.000000	0.000000	0.000000	0.000000	0.000000	0.000000
5.735000	-0.010806	-0.280863	0.137507	0.021804	0.001140	0.097975	-0.099318	-0.097753	0.010156	0.051530	0.020125	0.027437	0.146525	0.146525	1.449414	1.288577	0.000000	0.000000	0.000000	0.000000	0.000000	0.000000	0.000000	0.000000	0.000000	0.000000	0.000000	0.000000	0.000000	0.000000	0.000000	0.000000	0.000000	0.000000	0.000000	0.000000	0.000000	0.000000
5.740000	-0.010742	-0.280882	0.137724	0.021436	0.000769	0.097969	-0.099593	-0.098447	0.010365	0.051228	0.019789	0.027437	0.146525	0.146525	1.447417	1.288686	0.000000	0.000000	0.000000	0.000000	0.000000	0.000000	0.000000	0.000000	0.000000	0.000000	0.000000	0.000000	0.000000	0.000000	0.000000	0.000000	0.000000	0.000000	0.000000	0.000000	0.000000	0.000000
5.745000	-0.010680	-0.280903	0.137936	0.021085	0.000417	0.097963	-0.099862	-0.099121	0.010570	0.050942	0.019470	0.027437	0.146525	0.146525	1.445428	1.288794	0.000000	0.000000	0.000000	0.000000	0.000000	0.000000	0.000000	0.000000	0.000000	0.000000	0.000000	0.000000	0.000000	0.000000	0.000000	0.000000	0.000000	0.000000	0.000000	0.000000	0.000000	0.000000
5.750000	-0.010621	-0.280925	0.138140	0.020752	0.000082	0.097955	-0.100125	-0.099777	0.010771	0.050672	0.019168	0.027437	0.146525	0.146525	1.443451	1.288900	0.000000	0.000000	0.000000	0.000000	0.000000	0.000000	0.000000	0.000000	0.000000	0.000000	0.000000	0.000000	0.000000	0.000000	0.000000	0.000000	0.000000	0.000000	0.000000	0.000000	0.000000	0.000000
5.755000	-0.010564	-0.280948	0.138340	0.020436	-0.000234	0.097947	-0.100381	-0.100413	0.010969	0.050419	0.018884	0.027437	0.146525	0.146525	1.441489	1.289003	0.000000	0.000000	0.000000	0.000000	0.000000	0.000000	0.000000	0.000000	0.000000	0.000000	0.000000	0.000000	0.000000	0.000000	0.000000	0.000000	0.000000	0.000000	0.000000	0.000000	0.000000	0.000000
5.760000	-0.010510	-0.280973	0.138533	0.020138	-0.000533	0.097938	-0.100632	-0.101029	0.011163	0.050181	0.018616	0.027437	0.146525	0.146525	1.439542	1.289105	0.000000	0.000000	0.000000	0.000000	0.000000	0.000000	0.000000	0.000000	0.000000	0.000000	0.000000	0.000000	0.000000	0.000000	0.000000	0.000000	0.000000	0.000000	0.000000	0.000000	0.000000	0.000000
